<?xml version="1.0" encoding="iso-8859-1"?>
<!-- Generator: Adobe Illustrator 19.1.0, SVG Export Plug-In . SVG Version: 6.00 Build 0)  -->
<svg version="1.1" id="Capa_1" xmlns="http://www.w3.org/2000/svg" xmlns:xlink="http://www.w3.org/1999/xlink" x="0px" y="0px"
	 viewBox="0 0 456.595 456.595" style="enable-background:new 0 0 456.595 456.595;" xml:space="preserve">
<g>
	<g id="XMLID_22_">
		<g>
			<rect x="243.922" y="374.345" style="fill:#C4804D;" width="169" height="5"/>
			<rect x="216.142" y="428.645" style="fill:#C4804D;" width="224.57" height="14.7"/>
			<polygon style="fill:#8E5D3C;" points="416.212,392.345 434.052,415.645 222.802,415.645 240.632,392.345 			"/>
			<path style="fill:#8E5D3C;" d="M388.802,170.645l-86.34,86.34c-2.08-1.32-4.33-2.39-6.72-3.16c-2.08-0.68-3.91-1.85-5.43-3.48
				c-4.64-4.98-4.35-13.09,0.65-18.1l36.55-36.55l36.55-36.55c2.63-2.62,6.11-3.95,9.55-3.95c3.11,0,6.19,1.09,8.56,3.3
				c1.63,1.52,2.79,3.34,3.47,5.43C386.412,166.315,387.492,168.565,388.802,170.645z"/>
			<path style="fill:#8E5D3C;" d="M410.152,186.475c4.64,4.98,4.34,13.1-0.66,18.11l-73.09,73.09c-5,5-13.13,5.3-18.11,0.66
				c-1.63-1.52-2.79-3.35-3.47-5.44c-0.77-2.39-1.85-4.64-3.17-6.72l86.35-86.34c2.08,1.32,4.33,2.4,6.72,3.17
				C406.802,183.675,408.632,184.845,410.152,186.475z"/>
			<path style="fill:#8E5D3C;" d="M246.812,28.655l-86.34,86.34c-2.08-1.32-4.33-2.39-6.72-3.16c-2.09-0.68-3.91-1.85-5.43-3.48
				c-4.64-4.98-4.35-13.1,0.66-18.1l73.09-73.1c2.62-2.62,6.11-3.95,9.55-3.95c3.11,0,6.19,1.09,8.56,3.3
				c1.63,1.51,2.79,3.34,3.47,5.43C244.422,24.325,245.492,26.575,246.812,28.655z"/>
			<path style="fill:#8E5D3C;" d="M268.162,44.485c2.2,2.37,3.29,5.44,3.29,8.55c0,3.44-1.33,6.93-3.95,9.56l-73.09,73.09
				c-5,5-13.13,5.29-18.11,0.66c-1.63-1.52-2.8-3.35-3.47-5.44c-0.77-2.39-1.85-4.64-3.17-6.72l86.35-86.34
				c2.08,1.32,4.33,2.4,6.72,3.17C264.812,41.685,266.642,42.855,268.162,44.485z"/>
			<path style="fill:#C4804D;" d="M273.142,75.335l78.17,78.18l-32.99,32.99l-32.99,32.99l-78.17-78.17L273.142,75.335z
				 M332.442,156.865c2.54-2.54,2.54-6.65,0-9.19l-53.46-53.47c-2.54-2.54-6.66-2.54-9.2,0c-2.53,2.54-2.53,6.65,0,9.19l53.47,53.47
				c1.27,1.27,2.94,1.9,4.6,1.9S331.182,158.135,332.442,156.865z"/>
			<path style="fill:#C4804D;" d="M249.272,201.815l-208.65,208.65c-5.66,5.65-14.85,5.66-20.51,0c-5.65-5.65-5.65-14.85,0-20.5
				l208.65-208.65L249.272,201.815z"/>
			<path style="fill:#333333;" d="M453.702,422.145l0.01,27.7c0,3.59-2.91,6.5-6.5,6.5h-237.57c-3.59,0-6.5-2.91-6.5-6.5l0.01-27.7
				c0-1.4,0.44-2.79,1.32-3.95l26.45-34.55v-15.8c0-3.59,2.91-6.5,6.5-6.5h182c3.59,0,6.5,2.91,6.5,6.5v15.8l26.45,34.55
				C453.252,419.355,453.702,420.745,453.702,422.145z M440.712,443.345v-14.7h-224.57v14.7H440.712z M434.052,415.645l-17.84-23.3
				h-175.58l-17.83,23.3H434.052z M412.922,379.345v-5h-169v5H412.922z"/>
			<path style="fill:#333333;" d="M419.662,177.615c9.36,10.04,8.92,26.26-0.97,36.16l-73.1,73.09c-5.13,5.13-11.96,7.72-18.74,7.72
				c-6.31,0-12.58-2.24-17.42-6.74c-3.22-3-5.64-6.79-6.98-10.95c-1.64-5.07-5.64-9.07-10.7-10.7c-4.17-1.35-7.95-3.76-10.95-6.99
				c-7.51-8.05-8.7-20.08-3.78-29.63l-18.56-18.56l-208.65,208.64c-5.36,5.36-12.4,8.05-19.44,8.05c-7.05,0-14.09-2.69-19.45-8.05
				c-10.72-10.72-10.72-28.17,0-38.89l208.65-208.65l-22.49-22.48c-3.82,1.97-8.03,2.96-12.22,2.96c-6.31,0-12.58-2.24-17.42-6.74
				c-3.22-3-5.64-6.79-6.98-10.95c-1.64-5.06-5.64-9.07-10.71-10.7c-4.16-1.35-7.94-3.76-10.94-6.99
				c-9.36-10.04-8.92-26.26,0.97-36.15l73.1-73.1c9.89-9.89,26.11-10.33,36.16-0.98c3.22,3.01,5.63,6.79,6.98,10.95
				c1.64,5.07,5.64,9.07,10.7,10.71c4.16,1.34,7.95,3.76,10.95,6.98c7.51,8.06,8.7,20.08,3.78,29.64l79.94,79.94
				c9.55-4.93,21.58-3.73,29.64,3.77c3.22,3.01,5.63,6.79,6.98,10.95c1.64,5.07,5.64,9.07,10.7,10.71
				C412.872,171.975,416.662,174.395,419.662,177.615z M409.492,204.585c5-5.01,5.3-13.13,0.66-18.11c-1.52-1.63-3.35-2.8-5.43-3.47
				c-2.39-0.77-4.64-1.85-6.72-3.17l-86.35,86.34c1.32,2.08,2.4,4.33,3.17,6.72c0.68,2.09,1.84,3.92,3.47,5.44
				c4.98,4.64,13.11,4.34,18.11-0.66L409.492,204.585z M302.462,256.985l86.34-86.34c-1.31-2.08-2.39-4.33-3.16-6.72
				c-0.68-2.09-1.84-3.91-3.47-5.43c-2.37-2.21-5.45-3.3-8.56-3.3c-3.44,0-6.92,1.33-9.55,3.95l-36.55,36.55l-36.55,36.55
				c-5,5.01-5.29,13.12-0.65,18.1c1.52,1.63,3.35,2.8,5.43,3.48C298.132,254.595,300.382,255.665,302.462,256.985z M351.312,153.515
				l-78.17-78.18l-65.98,65.99l78.17,78.17l32.99-32.99L351.312,153.515z M271.452,53.035c0-3.11-1.09-6.18-3.29-8.55
				c-1.52-1.63-3.35-2.8-5.43-3.47c-2.39-0.77-4.64-1.85-6.72-3.17l-86.35,86.34c1.32,2.08,2.4,4.33,3.17,6.72
				c0.67,2.09,1.84,3.92,3.47,5.44c4.98,4.63,13.11,4.34,18.11-0.66l73.09-73.09C270.122,59.965,271.452,56.475,271.452,53.035z
				 M40.622,410.465l208.65-208.65l-20.51-20.5l-208.65,208.65c-5.65,5.65-5.65,14.85,0,20.5
				C25.772,416.125,34.962,416.115,40.622,410.465z M160.472,114.995l86.34-86.34c-1.32-2.08-2.39-4.33-3.16-6.72
				c-0.68-2.09-1.84-3.92-3.47-5.43c-2.37-2.21-5.45-3.3-8.56-3.3c-3.44,0-6.93,1.33-9.55,3.95l-73.09,73.1
				c-5.01,5-5.3,13.12-0.66,18.1c1.52,1.63,3.34,2.8,5.43,3.48C156.142,112.605,158.392,113.675,160.472,114.995z"/>
			<path style="fill:#FFFFFF;" d="M332.442,147.675c2.54,2.54,2.54,6.65,0,9.19c-1.26,1.27-2.93,1.9-4.59,1.9s-3.33-0.63-4.6-1.9
				l-53.47-53.47c-2.53-2.54-2.53-6.65,0-9.19c2.54-2.54,6.66-2.54,9.2,0L332.442,147.675z"/>
		</g>
		<g>
		</g>
	</g>
</g>
<g>
</g>
<g>
</g>
<g>
</g>
<g>
</g>
<g>
</g>
<g>
</g>
<g>
</g>
<g>
</g>
<g>
</g>
<g>
</g>
<g>
</g>
<g>
</g>
<g>
</g>
<g>
</g>
<g>
</g>
</svg>
