<?xml version="1.0" encoding="UTF-8" standalone="no"?>
<svg xmlns="http://www.w3.org/2000/svg" xmlns:xlink="http://www.w3.org/1999/xlink" width="465.79434" height="411.44424" version="1.0">
  <defs>
    <linearGradient id="a">
      <stop offset="0" stop-color="#74381f"/>
      <stop offset=".08676991" stop-color="#a34f26"/>
      <stop offset=".26369572" stop-color="#c35d1c"/>
      <stop offset=".36576825" stop-color="#a04c15"/>
      <stop offset=".50866985" stop-color="#a24c0e"/>
      <stop offset=".63115698" stop-color="#b36120"/>
      <stop offset=".86252147" stop-color="#6d3002"/>
      <stop offset="1" stop-color="#4b2200"/>
    </linearGradient>
    <linearGradient xlink:href="#a" id="b" x1="-16.102671" x2="-1.0064163" y1="357.36816" y2="357.36816" gradientTransform="matrix(.98758 -.15712 .12971 .81534 61.85514 .0089777)" gradientUnits="userSpaceOnUse"/>
  </defs>
  <path fill="url(#b)" d="M56.641193 21.733821c-4.114749.654622-7.207761 2.628693-6.927089 4.392913L124.42139 495.7141l14.9063-2.37146L64.620393 23.755271c-.28067-1.764219-3.86445-2.676071-7.9792-2.02145z" transform="translate(-44.82024 -16.06575)"/>
  <path fill="#d50000" d="m412.50941 264.43724 2.3505713 4.62938527c11.58395323 21.94116206 23.74499281 39.3404036 41.9865522 51.59796623l4.26480902 2.66142797-1.34653486.31862166-1.285542.24989934-1.285542.13119715-1.18701504.04997987c-12.70059189 1.30572405-23.90920438-11.43914229-35.20226853-17.49920128l-2.12536687-1.27448664-2.07844928-1.0183398c-15.66578364-8.1029861-31.77728439-2.6551805-47.47591034 1.9679573l-2.1910515.69971815-2.18635974.63099583-2.18635974.69971815-2.29896196.57476849-2.29896196.63099583c-9.543038 2.89258486-19.26436286 3.8984297-28.87777726 7.17835854l-3.07779397.88089517-2.8666648.76844047c-7.13147384 1.80552274-16.22410297 4.0171319-23.1491394 0l-.6193122-.89963762-.05160936-.9496175.39879953-1.07456715.66622979-1.00584485c2.4772488-3.46110586 10.44385575-8.8214467 11.04909268-13.58827661l-.06099287-1.33071399-.50670998-1.14328948c-2.77752139-4.49818812-11.69186368-4.30451613-15.69862595-4.06086427l-1.50605467.18117702-1.52012995.19991947-1.285542.24989934-1.17763153.32486914-1.90016243.568521-3.93169413 1.51189101c-14.85410931 6.19750363-28.08486997 20.23559906-43.22517659 24.8774793l-1.84386132.57476848-1.96584707.49979868c-21.54455778 5.97259423-26.0627218-23.91536684-48.21720827-23.02822418l-1.4450618.12494967-1.34653486.19991947-1.35122662.18117702-1.34653486.2686418c-19.18460296 5.04171918-38.21437787-5.31036098-56.56384771.12494966l-2.35995483.7559455-2.34587955.82466783c-18.96409028 8.07174868-28.48836126 17.5679236-49.06172491 15.8623606l-1.61865689-.06872231-1.63273217-.12494967h-1.50605467l-1.52012995-.05622736L19.46198316 14.56913742l.9524271.43107636.83982487.51854113.9055095.56227351.83982489.44357133c12.10943024 8.13422352 16.36485574 6.25997847 29.71291038 5.32910343h1.67964976l1.68434151.13119715c22.44068378 3.06126692 42.8686029 25.52721758 66.8200331 25.32105063h2.80567195l5.70987082-.24989934 2.97926703-.25614683c20.50298727-.7934304 37.31825188-8.4778351 56.67644993-11.7390215l2.51947463-.31862165h1.06502932c11.45727572 3.39238354 9.85738587 10.13341824 25.44810136 10.91435367l1.0791046.05622736.99934468.19367198 1.06502932.12494967 1.01341996.193672 1.01341997.18117701.99934469.2686418c14.53037793 5.21664872 15.37489457 9.66485697 32.45758945 4.5044356l2.1910515-.6434908 2.18635974-.69971815c15.4405792-5.7601798 25.70145635-6.6660649 41.15141907-1.38694134l1.6280404.43732384 1.17763154.37484901 1.12133042.39359146 1.17763154.50604617c23.14444764 7.43450536 12.76158475 22.57215788 23.98896427 38.70940776l1.01341997 1.45566366 1.00403645 1.20576431c9.05978682 10.50826725 15.73616002 14.71282365 27.70014572 13.95687814l.9993447-.12494967 1.01341996-.19367199.83982488-.18117702.84451663-.19367199-.84451663 8.05300624-1.17293978 7.9905314-1.29961727 8.00302636-1.39345245 8.05925371-1.45913708 8.11548107-1.285542 8.00302636-1.17293977 7.98428391-.84451664 7.93430405.27212203 2.41777611.68030507 2.7301503.83982488 2.98004962 1.06502931 2.85509996 1.39814422 2.78013016c3.85193422 7.6844047 11.5980285 8.75272438 16.7589635 14.48166675l1.91892947 1.83676015 1.83916957 1.89923499 1.9048542 1.97420478c14.46000154 15.58747133 19.0063161 34.62980104 26.6351164 56.15862918l.89143423 2.7239028L412.50941 264.43724"/>
  <path fill="#4c0000" d="m299.71956 317.61582-11.21331-22.14733 1.28554-.37484 1.35123-.3811c5.21255-1.51814 14.1222-2.37404 18.72481 1.83676l.89144 1.01834.83982 1.45566.33312 1.39944-.05161 1.33071-.50671 1.32447-.77884 1.27449-1.01342 1.27448-1.23393 1.1308-1.28554 1.20576c-1.8767 1.40569-4.65422 3.94841-6.23066 5.84765l-.77883 1.19951-.33311 1.27449v1.33071"/>
  <path fill-opacity=".3283582" d="M52.38375 22.134745c-1.538597-.028788-3.151699.032787-4.809053.156187l-1.876704.312375-1.876704.312374-1.759409.312374.234588 4.529425.234588 4.685613c-.140791 9.215038 5.503433 15.500007 9.618106 21.866192l.938352 1.405684.938351 1.405684C62.91206 70.33408 58.53465 72.726867 62.58833 86.01526l1.40752 2.65518 1.17294 1.09331 1.05565-.46856.93835-1.56187.82106-1.87424.82106-1.87425.82105-1.093308.93836.156187 1.05564 2.030431c11.04913 31.71848 19.15176 65.49237 21.58209 100.4283l.82106 3.12374 1.29024-1.40568 1.64211-5.15418 1.75941-7.65316c4.16159-24.209 7.63818-34.96717-.93835-57.94541l-1.994-5.62274-1.994-5.93511c-5.79901-16.33092-2.42564-18.69872-4.45717-33.736409l-.93835-3.123742-1.52482-2.498993-3.04964-4.217052-2.22859-4.529425-1.64212-4.529426-1.05564-4.685612-1.05565-4.8418-.82105-4.8418-1.17294-5.154174-1.64212-4.997987-1.8767-1.093309-2.1113-.937123-2.11129-.624748-1.99399-.780935c-4.86652-1.340111-9.10757-2.100205-13.7234-2.18662zm45.39277 18.27389 1.64212 3.74849 1.64211 3.592303c4.04426 9.958488 8.06044 19.960709 12.43316 29.675546l1.64212 3.592303 1.75941 3.592303 1.75941 3.5923 1.994 3.43612 1.99399 3.43612 2.11129 3.43611.82106.31238.93835-.62475.93836-1.40569 1.05564-1.87424 1.05565-1.71806 1.05564-1.40568.70377-.62475.58647.62475 1.64211 5.62273 1.17294 5.93511c2.65554 21.94116.55363 34.42363 13.37152 50.60462l1.40752 2.03043 1.40753 2.03043c9.00349 11.09553 12.1282 20.19187 17.12492 34.82972l.93835 3.12374 1.05565 3.12375.93835 2.81136 1.05565 3.12374c5.73333 17.01814 8.05575 19.65459 18.06327 31.70598l1.40753 1.87425 1.29023 1.87424c12.07659 18.51129-5.04364 32.28075-6.21658 49.19894l-.11729 3.74849v3.90467l-.1173 3.59231 1.29024-.15619c2.68368-.23741 5.18439-.24365 7.85869-.46856h1.40753l.23459-2.65518.23459-2.81137.11729-2.65518.23459-2.81137.23459-2.81137.46917-2.49899.70377-2.49899 1.05564-2.18662.82106-.78094 1.17294-.15618h1.40753l1.52482.31237 1.40753.31237h1.29023l1.05565-.31237.46917-.93712.23459-2.96756-.11729-2.96755-.58647-2.96756c-10.11074-24.76503 7.30037-30.43774-1.52483-44.6695l-1.64211-2.18662-1.75941-1.71806-1.8767-1.71806-2.1113-1.56187c-16.05989-11.01431-20.13233-8.0655-27.79867-32.95547l-1.40753-5.31037-1.29023-5.31036-1.17294-5.31036c-1.76879-8.95264-3.37807-17.91778-5.16093-26.86418l-1.17294-5.31036-1.29024-5.31036-1.52482-4.99799-1.64212-5.15417-1.99399-4.99799-.82106-.62474-1.40753.46856-1.64211 1.24949-1.64212 1.56187-1.75941 1.71806-1.52482 1.2495-1.05565.31237-.58647-.62475-.11729-4.68561c.7413-8.60903 4.00207-15.22512 5.8647-23.27187l.82106-4.68562v-4.685609c-1.06973-10.239626-5.44714-19.354704-9.50082-27.957489l-1.8767-4.529426-1.75941-4.685612-2.69776.312374c-11.51358 1.568118-24.7678.281137-35.65737-5.154174l-2.34588-1.093309zm112.13304 3.592303.93835 2.65518.70377 2.655181.70376 2.498993c6.89689 27.732579 8.04168 36.091708 29.90997 46.075188l1.99399 1.09331 1.994 1.2495 1.87671 1.09331c8.38415 5.50403 9.72131 11.9077 13.6061 22.33475l1.29023 3.12374 1.40753 2.96756c3.13877 5.31036 7.50681 9.47118 11.26022 14.05684l1.29023 1.56187 1.17294 1.56187 1.17294 1.71806 1.05565 1.56187.82106 1.87424.93835 1.71806c5.13746 11.79525-.9102 25.84584 2.69776 38.7344l.70376 3.43611.82106 3.27993c2.61799 10.10843 5.78493 19.83578 8.91434 29.67555l1.05565 3.27993.93835 3.27993 1.05565 3.27993c5.48934 22.62837 24.56604 22.52841 16.18657 50.91699l-.46918 3.74849-.11729 3.43611.35188 3.27993.58647-2.96755.93835-2.81137 1.05565-2.49899c4.68236-8.95891 6.3667-12.8136 5.7474-24.52138l-.46917-5.93511-.35189-5.93511-.23458-5.93511.23458-5.62273 1.05565-5.31036 1.8767-4.52943.1173-.15618.46917-.31238c.21453-.19421.37726-.39279.58647-.46856.17434-.06315.41562-.01221.58647 0h.1173l.70376.31237 1.29023 1.56188 1.17294 2.49899.1173.15619c.04416.10722.07329.20286.11729.31237.72326 1.80025 1.42512 3.88593 2.11129 5.93511.03112.10944.0872.20255.1173.31237l.23459.78094c.24421.97704.41741 1.96397.58647 2.96755 3.01262 17.88466-5.47236 39.72149-11.49481 54.19692l-1.75941 4.21705-1.64212 4.21706 1.52482-1.40569 1.52482-1.24949c8.25279-8.74649 9.20522-4.94178 12.08128-19.52339l1.05565-3.74849 1.17294-3.43612 1.52482-2.81136 1.75941-1.40569 2.46317.15619 1.75941 1.40568h.1173v.15619l.58647 1.40568.23459.78094v.31237l-.23459 2.03044-.1173.62474-.23458 1.40569-.46918 2.18662-1.29023 3.90467-1.17294 3.90468-1.17294 3.74849-.70377 3.43612 1.17294-2.81137 1.40753-2.81137c3.02503-4.19353 4.783-8.37397 5.63011-12.49496 1.42271-4.81236 1.23874-8.25623.11729-12.49497-.0258-.09751-.09049-.21399-.11729-.31238-1.26259-7.0979-4.208-14.23936-7.27223-21.39763-.1135-.26514-.23835-.51557-.35188-.78093-1.67262-4.22175-3.37572-8.41848-4.92634-12.65116l-.93836-2.49899-.82105-2.18662-.82106-2.34281-.82106-2.3428c-.4383-1.13957-.75765-2.27163-1.05565-3.43612-.29272-1.11663-.49468-2.14996-.70376-3.27993-.41911-2.30817-.7081-4.57198-1.05565-6.87223-.34836-2.25339-.7759-4.39288-1.40752-6.55986-.32966-1.14498-.68694-2.17597-1.17294-3.27992-.45284-1.04693-.89085-1.96716-1.52482-2.96756l-1.40753-2.34281-1.29024-2.3428c-.97023-1.43243-1.87364-2.76329-2.58046-4.06087-.71582-1.32471-1.26315-2.66987-1.75941-3.90467-1.99783-4.93806-2.4969-9.32025-3.28423-14.83778-.38671-2.75934-.86798-5.86169-1.64212-9.37122l-1.17294-3.43612-1.64212-3.27993-.82105-.78093-.70377.46856-.70376 1.40568-.1173.46856c-.94526 2.2508-1.33199 4.6004-1.40752 7.02842-.01057.10276-.10799.21127-.1173.31238-.00285.15913-.00009.30907 0 .46856-.20201 2.7258.13824 4.87593.70377 6.87223.09589.33851.1222.76009.23458 1.09331 2.67273 12.01096 9.41179 22.87369 1.05565 23.11569l-1.64212-.31238-1.05564-.93712-1.05565-1.40568-1.05564-1.40569-1.05565-1.71805c-1.94709-3.54857-3.48596-8.00303-4.80905-12.02641l-.58647-1.71806-.70377-1.56187-.23458-2.18662.11729-1.87424.46918-2.03043.70376-2.18662v-.15619l.82106-1.87425.58647-2.18662.35188-2.03043-.23459-2.03043-.46917-2.49899-.1173-.78094c-.09156-.53663-.24081-1.15208-.35188-1.71806-.20012-1.17362-.47511-2.31926-.70376-3.43611-1.20044-5.86349-2.80638-10.98768-4.69176-15.46252-.10171-.24136-.13116-.54313-.23459-.78094-.07288-.18972-.16218-.28398-.23459-.46856-1.09992-2.80372-2.12458-5.01568-2.93235-6.0913l-1.17294-2.03043-1.40753-2.03043c-.97942-1.38069-1.97251-2.68347-3.04964-3.90468-.02282-.02584-.09445.02579-.11729 0-.47959-.57512-.91558-1.17148-1.40753-1.71806-.34293-.35755-.70623-.7468-1.05565-1.09331-.26094-.27543-.55721-.51249-.82105-.78093-.6185-.59251-1.24336-1.15199-1.87671-1.71806-.53273-.5009-1.10038-.92788-1.64211-1.40568-1.19385-1.01814-2.306-1.99295-3.51882-2.96756-18.4649-14.45078-40.00783-19.46561-41.99125-54.353104l-.70376-4.685613-.93835-4.529425-1.17294-.156187c-5.30169-1.26824-10.77697-2.16163-16.06928-3.436116l-1.17294-.156187zm74.71627 1.249496c-12.81789.056228-24.67396 8.152966-37.41678 9.058851h-2.58047l1.8767 3.279929 1.994 3.592303 1.8767 3.592303 1.75941 3.904677c5.0108 10.620722 9.08794 20.366793 15.83469 29.363173l2.34588 2.96755 2.58047 2.65518c4.29296 4.57941 7.01417 5.26663 12.08128 3.90468h1.40753l1.17294.46856.93835.62475 1.64211 2.499c2.96989 5.76017 2.65084 13.31338 6.33388 18.43007l1.52482 1.87425 1.52482 1.56187c3.84255 3.53607 7.80239 5.48529 10.43917 11.08928l.93835 2.34281.70376 2.18662.82106 2.3428.58647 2.34281.82106 2.34281c7.84931 20.43551 26.6445 37.82226 33.89796 59.1949l1.05564 4.68561.70377 4.8418c1.54828 50.21728 23.36965 22.35349 9.14893 70.59657l-1.52483 4.99798-1.52482 5.15418-1.29023 5.46655 1.29023-.15619 1.52482-.46856 1.64212-.46856 1.64212-.46856 1.75941-.46857 1.52482-.46856 1.52482-.31237 1.40753-.31238 1.52482-2.96755 1.52482-2.81137 1.52482-2.81137 1.40753-2.81136 1.40753-2.96756 1.05564-2.96755.93836-3.12374.46917-3.27993c1.95646-15.2751.1173-33.47402-4.80905-47.48088l-.93835-2.81137-1.05565-2.65518-1.29023-2.65518c-15.25291-26.65176-20.57338-34.01754-32.49044-65.59857l-1.64211-3.74849-1.75941-3.43612-1.75941-3.43611-1.75941-2.96756-1.8767-2.81137-1.87671-2.49899-3.98799-5.46655-2.22859-4.68561-.93835-4.37324v-4.06086l.35188-4.06087.58647-4.21705.23459-4.8418-.35188-5.46655-.23459-.78093-.58647-.46856-.58647-.15619c-2.71184-.21242-6.84996 3.50484-9.7354 3.90468l-1.17294.15618h-.82106l-.70376-.46856-.58647-.62475c-4.80436-9.17755 2.04561-20.94781-1.994-31.237414l-.82106-2.186619-.70376-2.18662c-2.75406-6.647322-6.12275-12.544946-9.38352-18.74245l-1.05564-2.030432-1.17294-2.030432-.93836-2.030432-1.05564-2.18662-2.69776-.156187zm-101.92847 5.466548-.58647.780936-.58647 2.342806-.58647 2.967555-.46918 3.436116c-1.18232 10.520762-.94304 10.945591 3.40153 19.211011l.70376 1.561871.46918 1.718058c1.79694 7.765625.1689 13.831925 4.69176 20.772885l1.05564 1.40568.93836 1.56187 1.05564 1.40569c13.99083 16.14349 15.91914 16.14349 26.74303 38.26583l1.64211 3.12374.93836 1.40569.82105 1.56187c14.00021 30.7876 20.88772 12.51371 17.71139 46.54375l-.23458 4.99799v4.8418c3.52821 32.61185 28.91062 26.23318 33.19419 74.81361l.70377 5.77892.93835 5.77893.93835 5.93511 2.22859-1.09331c7.79768-4.22956 21.53517-9.48368 29.44078-4.06087l2.46318 1.56187-1.40753-2.49899-1.52482-2.34281-1.52482-2.3428c-9.06447-13.55079-16.87157-23.98409-23.57609-40.14008l-.82106-2.18662-.82106-2.18662c-7.65696-20.84161-11.54173-29.13202-21.81668-48.26181l-1.05564-2.81137-.93836-2.96755-.70376-3.12375-.46918-3.27993-.35188-3.43611c.75068-10.48328-3.13878-16.61206-8.32787-23.74044l-2.58047-3.27993-2.58047-3.12374c-5.33451-6.27247-12.54107-13.19468-16.30386-21.24144l-1.05564-2.96756-1.05565-3.12374-1.17294-2.96755c-12.36748-23.28438-26.29731-27.84504-35.77466-57.789227l-1.29024-4.060864-1.17294-4.217051-.93835-3.74849-.35188-.780936zM328.37648 81.9544l.93835 4.8418.82106 4.99799c11.07254 64.12417 8.90965 68.90974 42.34313 116.51556l1.8767 3.27993 1.994 3.27993 1.8767 3.12374c7.291 11.52663 15.42181 21.92867 21.34751 34.82972l1.52482 3.43612 1.52482 3.5923c5.71925 13.37586 15.95667 26.17071 24.04526 37.17253l1.994 2.49899 1.87671 2.18662 1.52482 2.03043-1.87671-3.27992-1.99399-3.59231c-20.88772-39.45286-40.4805-70.17798-63.92522-106.83197l-2.93235-4.99798-2.69776-5.31036-2.58047-5.15418c-13.19791-25.85833-9.68379-46.69994-13.13693-75.43836l-1.05564-.93712-1.05565-.78094c-3.92699-3.41737-7.18777-6.7098-10.32187-11.40166l-.70376-1.40568-.70377-1.405683-.70376-1.249497zm-197.64035 92.46276-.35188 1.24949.35188 3.74849 1.05564 5.77892c1.57174 11.21424 6.64353 25.50223 3.40153 36.54778l-.46918 2.18662-.35188 2.18662c-.86328 6.42241 2.91358 11.16425 5.63011 15.7749l1.29024 2.18662 1.05564 2.3428.70376 2.34281.58647 4.37324c-.39879 13.23217.1736 12.37003 1.52483 23.27187l-.1173 1.09331-.35188 1.09331c-1.58581 3.83596-3.35461 4.92929-3.75341 9.83979l-.23458 3.5923v3.59231l-.1173 3.5923 1.994.15619c9.26622.94337 18.35416 2.5552 27.68138 2.81136h1.994l-1.05565-3.74849-1.29023-3.74849-1.40753-3.74849c-3.51882-9.6711-3.85194-11.4329-4.33988-22.02238l-1.05564-2.65518-1.40753-2.49899c-4.03022-5.74769-7.37545-6.56609-10.32187-14.21303l-1.29024-2.96755-1.29023-2.96755-1.29023-2.96756c-7.90093-19.97945-.43165-39.12799-13.25422-59.97584l-1.87671-3.90468-1.64211-2.3428zm-3.8707 84.6534-2.22859 1.40568c-25.87974 34.47363-19.15645-18.18018-62.16581 18.27389l-1.52482 1.40568.82106 4.68562c1.40753 9.41493 2.88074 18.83616 4.22258 28.26986l.82106 4.68561h1.17294c24.15787 5.12296 37.00859-10.00847 60.17181-17.49295l2.81506-.78094-.1173-5.46655c-.15483-9.6461.23928-24.17151-2.46317-33.11166l-1.52482-1.87424z"/>
</svg>